<?xml version="1.0" encoding="utf-8"?>
<!-- Generator: Adobe Illustrator 19.0.0, SVG Export Plug-In . SVG Version: 6.00 Build 0)  -->
<svg version="1.1" id="Layer_1" xmlns="http://www.w3.org/2000/svg" xmlns:xlink="http://www.w3.org/1999/xlink" x="0px" y="0px"
	 viewBox="0 0 500 500" style="enable-background:new 0 0 500 500;" xml:space="preserve">
<style type="text/css">
	.st0{fill:#1B69B2;}
</style>
<g id="XMLID_1_">
	<path id="XMLID_5_" class="st0" d="M301.1,229.8c4.5-0.5,9.3,0.5,12.7,3.7c3.8,3.3,5.5,8.3,5.9,13.1c0.4,4,0.1,8.2-1,12.1
		c-1.3,4.3-4.2,8.3-8.4,10.2c-3.7,1.6-8,1.7-11.9,0.7c-4.1-1.1-7.5-4.3-9.3-8.1c-2.4-4.9-2.6-10.6-2-16c0.5-4.6,2.4-9.3,6-12.4
		C295.2,231.2,298.1,230.1,301.1,229.8 M301.3,236.7c-3.7,0.7-6.3,4.2-6.9,7.7c-0.8,4.1-0.8,8.4,0.4,12.4c1.1,3.2,3.8,6,7.2,6.5
		c3.5,0.6,7-1.3,8.7-4.3c1.8-3.3,2-7.2,1.9-10.9c-0.2-3.2-0.8-6.6-3.1-9C307.5,236.9,304.2,236,301.3,236.7z"/>
	<path id="XMLID_6_" class="st0" d="M67.5,229.8c13.7,0,27.5,0,41.2,0c0,4,0.1,8.1-0.1,12.1c-4-0.1-7.9,0-11.9,0
		c0,9.5,0,18.9,0,28.4c-5.7,0-11.5,0-17.2,0c0-9.5,0-18.9,0-28.4c-4,0-8,0-12,0C67.5,237.9,67.5,233.8,67.5,229.8z"/>
	<path id="XMLID_7_" class="st0" d="M120.4,229.8c6,0,11.9,0,17.9,0c5.5,13.5,11.1,27,16.6,40.5c-5.5-0.1-11.1,0-16.7,0
		c-3-7.9-5.8-15.9-8.8-23.8c-3,7.9-5.7,15.9-8.6,23.8c-5.5,0-11,0-16.5,0C109.7,256.8,115.1,243.3,120.4,229.8z"/>
	<path id="XMLID_8_" class="st0" d="M151,241.9c-0.1-4,0-8.1-0.1-12.1c13.7,0,27.4,0,41.2,0c0,4,0,8.1,0,12.1c-3.9,0-7.8,0-11.7,0
		c0,9.5,0,18.9,0,28.4c-5.7,0-11.5,0-17.2,0c0-9.5,0-18.9,0-28.4C159.2,241.9,155.1,241.8,151,241.9z"/>
	<path id="XMLID_9_" class="st0" d="M187.8,270.3c5.4-13.5,10.7-27,16.1-40.5c6,0,11.9,0,17.9,0c5.6,13.5,11.1,27,16.6,40.5
		c-5.6,0-11.1,0.1-16.7,0c-2.9-7.9-5.8-15.8-8.7-23.8c-0.2,0.3-0.3,0.6-0.4,0.9c-2.8,7.6-5.5,15.3-8.3,22.9
		C198.8,270.3,193.3,270.3,187.8,270.3z"/>
	<path id="XMLID_12_" class="st0" d="M256.3,230.3c5.9,0,11.9-0.2,17.8,0.4c3.4,0.3,6.1,3,7.4,6c1.2,3.1,1.2,6.6,0.5,9.8
		c-0.8,3.4-3.3,6.7-6.8,7.6c-3.9,1-8,0.7-12,0.7c0,4.9,0,9.9,0,14.8c-2.3,0-4.6,0-6.9,0C256.3,256.6,256.3,243.4,256.3,230.3
		 M263.3,237.1c0,3.7,0,7.4,0,11.1c2.5,0,5,0,7.4-0.2c1.5-0.1,2.9-0.9,3.8-2.2c0.9-1.3,1-3.1,0.8-4.7c-0.4-1.9-1.9-3.7-4-3.9
		C268.6,236.9,265.9,237.1,263.3,237.1z"/>
	<path id="XMLID_13_" class="st0" d="M321.8,230.3c2.4,0,4.7,0,7.1,0c1.7,8.9,3.3,17.8,5.1,26.7c2.1-8.9,4.1-17.8,6.2-26.7
		c2.7,0,5.5,0,8.2,0c2,9.1,4,18.1,5.9,27.2c1.9-9,3.5-18.1,5.3-27.2c2.3,0,4.6,0,6.9,0c-2.8,13.1-5.5,26.3-8.3,39.4
		c-2.4,0-4.8,0-7.2,0c-2.4-9.7-4.5-19.5-6.9-29.3c-2.2,9.8-4.5,19.5-6.7,29.3c-2.5,0-5,0-7.5,0C327.3,256.5,324.4,243.4,321.8,230.3
		z"/>
	<path id="XMLID_14_" class="st0" d="M370,230.3c8.5,0,16.9,0,25.4,0c0,2.3,0,4.5,0,6.7c-6.2,0-12.3,0-18.5,0c0,2.9,0,5.7,0,8.6
		c5.7,0,11.5,0,17.2,0c0,2.2,0,4.4,0,6.6c-5.7,0-11.5,0-17.2,0c0,3.5,0,7.1,0,10.6c6.4,0,12.7,0,19.1,0c0,2.2,0,4.5,0,6.7
		c-8.7,0-17.3,0-26,0C370,256.6,370,243.4,370,230.3z"/>
	<path id="XMLID_17_" class="st0" d="M401.8,230.3c4.7,0,9.5,0,14.2,0c3,0.3,6.2,0,8.9,1.5c3,1.7,4.6,5.2,4.7,8.6
		c0.2,3.2-0.4,6.6-2.8,8.9c-1.6,1.7-3.8,2.5-6.1,3c4,2.6,6,7,8.2,11c1.2,2.1,2.3,4.2,3.4,6.3c-2.7,0-5.5,0-8.2,0
		c-2.9-4.8-5.5-9.8-8.7-14.4c-1.5-2.2-4.5-2.1-6.9-2.1c0,5.5,0,11,0,16.5c-2.3,0-4.6,0-6.9,0C401.8,256.5,401.8,243.4,401.8,230.3
		 M408.7,237.1c0,3.3,0,6.6,0,9.9c3.6-0.1,7.2,0.2,10.7-0.3c2.7-0.6,3.7-3.9,3-6.3c-0.3-1.9-2.2-3.2-4-3.2
		C415.1,237,411.9,237.1,408.7,237.1z"/>
</g>
</svg>
